<svg width="512" height="512" viewBox="0 0 512 512" fill="none" xmlns="http://www.w3.org/2000/svg" role="img" aria-label="PitchSide">
  <defs>
    <linearGradient id="psBg" x1="0" y1="0" x2="512" y2="512" gradientUnits="userSpaceOnUse">
      <stop offset="0" stop-color="#0f1e2e"/>
      <stop offset="1" stop-color="#020617"/>
    </linearGradient>
    <linearGradient id="psDot" x1="328" y1="328" x2="392" y2="392" gradientUnits="userSpaceOnUse">
      <stop offset="0" stop-color="#34d399"/>
      <stop offset="1" stop-color="#10b981"/>
    </linearGradient>
    <radialGradient id="psGlow" cx="0.5" cy="0.5" r="0.5">
      <stop offset="0" stop-color="#10b981" stop-opacity="0.55"/>
      <stop offset="1" stop-color="#10b981" stop-opacity="0"/>
    </radialGradient>
  </defs>
  <rect x="0" y="0" width="512" height="512" rx="116" fill="url(#psBg)"/>
  <rect x="6" y="6" width="500" height="500" rx="110" fill="none" stroke="#1e2b3d" stroke-width="2"/>
  
    <path d="M243.24 368L171.24 368L171.24 111.68L290.04 111.68Q314.88 111.68 334.86 121.58Q354.84 131.48 366.54 150.02Q378.24 168.56 378.24 194.84Q378.24 220.76 366.54 239.48Q354.84 258.20 334.86 268.10Q314.88 278 290.04 278L243.24 278L243.24 368M276 163.52L243.24 163.52L243.24 226.16L276 226.16Q288.24 226.16 297.60 218.24Q306.96 210.32 306.96 194.84Q306.96 179 297.60 171.26Q288.24 163.52 276 163.52" fill="#ffffff"/>
    <circle cx="360" cy="360" r="60.8" fill="url(#psGlow)"/>
    <circle cx="360" cy="360" r="32" fill="url(#psDot)"/>
  
</svg>
